<?xml version="1.0" encoding="UTF-8" standalone="no"?>
<svg
   xmlns:dc="http://purl.org/dc/elements/1.1/"
   xmlns:cc="http://creativecommons.org/ns#"
   xmlns:rdf="http://www.w3.org/1999/02/22-rdf-syntax-ns#"
   xmlns:svg="http://www.w3.org/2000/svg"
   xmlns="http://www.w3.org/2000/svg"
   id="svg2"
   viewBox="0 0 24 24"
   version="1.1"
   width="24px"
   height="24px">
  <g>
    <path
       d="m 8.9576519,10.157783 q 0.7435988,0 1.2657001,0.268961 0.537922,0.25314 0.870169,0.680314 0.348067,0.427174 0.50628,0.980918 0.158212,0.553743 0.158212,1.13913 l 0,4.746374 -1.8985499,0 0,-4.17681 q 0,-0.332246 -0.047464,-0.680313 Q 9.7645356,12.752468 9.6063232,12.467686 9.4639319,12.167082 9.1791494,11.977227 8.9101882,11.787372 8.451372,11.787372 q -0.4588162,0 -0.7910625,0.174034 -0.3322462,0.174033 -0.5537437,0.474637 -0.2214975,0.284783 -0.3322462,0.648671 -0.1107488,0.363889 -0.1107488,0.743599 l 0,4.145167 -1.8985498,0 0,-11.960864 1.8985498,0 0,5.426688 0.031643,0 q 0.1107488,-0.237318 0.316425,-0.458816 0.2214975,-0.237319 0.50628,-0.411352 0.2847825,-0.189855 0.6486712,-0.300604 0.3638887,-0.110749 0.7910624,-0.110749 z" />
    <path
       d="m 13.925276,16.233143 4.319201,-4.240095 q 0.522102,-0.50628 0.822705,-1.01256 0.316425,-0.522101 0.316425,-1.1865935 0,-0.7910625 -0.522101,-1.2498787 -0.50628,-0.4746375 -1.2657,-0.4746375 -0.806883,0 -1.297342,0.5537438 -0.490459,0.5379224 -0.601208,1.3606274 L 13.84617,9.698967 q 0.07911,-0.696135 0.395531,-1.2815212 0.316425,-0.5853862 0.806884,-1.0125599 0.490459,-0.4271737 1.13913,-0.6644925 0.664493,-0.25314 1.439734,-0.25314 0.727777,0 1.39227,0.2056763 0.680313,0.2056762 1.202415,0.6328499 0.522101,0.4113525 0.822705,1.0283812 0.316425,0.6012075 0.316425,1.4080912 0,0.537922 -0.142392,1.01256 -0.142391,0.458816 -0.395531,0.870169 -0.237319,0.411352 -0.569565,0.791062 -0.316425,0.363889 -0.696135,0.711956 l -3.227535,3.085144 5.046979,0 0,1.740337 -7.451809,0 0,-1.740337 z" />
  </g>
</svg>
