<?xml version="1.0" encoding="UTF-8" standalone="no"?>
<svg
   xmlns:dc="http://purl.org/dc/elements/1.1/"
   xmlns:cc="http://creativecommons.org/ns#"
   xmlns:rdf="http://www.w3.org/1999/02/22-rdf-syntax-ns#"
   xmlns:svg="http://www.w3.org/2000/svg"
   xmlns="http://www.w3.org/2000/svg"
   id="svg2"
   viewBox="0 0 24 24"
   version="1.1"
   width="24px"
   height="24px">
  <g>
    <path
       d="m 8.9576519,10.157783 q 0.7435988,0 1.2657001,0.268961 0.537922,0.25314 0.870169,0.680314 0.348067,0.427174 0.50628,0.980918 0.158212,0.553743 0.158212,1.13913 l 0,4.746374 -1.8985499,0 0,-4.17681 q 0,-0.332246 -0.047464,-0.680313 Q 9.7645356,12.752468 9.6063232,12.467686 9.4639319,12.167082 9.1791494,11.977227 8.9101882,11.787372 8.451372,11.787372 q -0.4588162,0 -0.7910625,0.174034 -0.3322462,0.174033 -0.5537437,0.474637 -0.2214975,0.284783 -0.3322462,0.648671 -0.1107488,0.363889 -0.1107488,0.743599 l 0,4.145167 -1.8985498,0 0,-11.960864 1.8985498,0 0,5.426688 0.031643,0 q 0.1107488,-0.237318 0.316425,-0.458816 0.2214975,-0.237319 0.50628,-0.411352 0.2847825,-0.189855 0.6486712,-0.300604 0.3638887,-0.110749 0.7910624,-0.110749 z" />
    <path
       d="m 16.187715,11.376019 0.50628,0 q 0.427174,0 0.838526,-0.06328 0.427174,-0.07911 0.775241,-0.268961 0.348068,-0.189855 0.553744,-0.50628 0.221498,-0.332246 0.221498,-0.8543473 0,-0.3797099 -0.142392,-0.6803137 Q 18.798221,8.7022283 18.545081,8.4965521 18.307762,8.2908758 17.975516,8.1801271 17.659091,8.0693783 17.311024,8.0693783 q -0.696135,0 -1.154951,0.3955313 -0.458817,0.3955312 -0.63285,1.0442024 L 13.735421,9.0502958 q 0.142392,-0.569565 0.474638,-1.0283812 0.348067,-0.4746375 0.822705,-0.8068837 0.490459,-0.3480675 1.091666,-0.5379225 0.601208,-0.189855 1.2657,-0.189855 0.727777,0 1.376449,0.2056763 0.664492,0.189855 1.154951,0.5853862 0.50628,0.37971 0.791062,0.9492749 0.284783,0.569565 0.284783,1.328985 0,0.9018112 -0.553744,1.6137672 -0.537922,0.696135 -1.455555,0.917633 l 0,0.03164 q 1.028381,0.205676 1.661231,0.933454 0.648672,0.711956 0.648672,1.756158 0,0.870169 -0.348068,1.51884 -0.332246,0.648672 -0.901811,1.075845 -0.553744,0.427174 -1.249879,0.63285 -0.696135,0.221498 -1.408091,0.221498 -0.711956,0 -1.344806,-0.158213 -0.63285,-0.142391 -1.170773,-0.458816 -0.522101,-0.316425 -0.933453,-0.822705 -0.395531,-0.50628 -0.617029,-1.202415 l 1.77198,-0.553744 q 0.205676,0.664493 0.75942,1.123309 0.569565,0.458816 1.471376,0.458816 0.363889,0 0.727777,-0.09493 0.37971,-0.110749 0.664493,-0.332246 0.300604,-0.221498 0.474637,-0.569565 0.189855,-0.348068 0.189855,-0.854348 0,-0.537922 -0.268961,-0.901811 -0.25314,-0.37971 -0.648671,-0.585386 -0.395531,-0.221498 -0.88599,-0.316425 -0.474637,-0.09493 -0.917632,-0.09493 l -0.474638,0 0,-1.51884 z" />
  </g>
</svg>
