<?xml version="1.0" encoding="UTF-8" standalone="no"?>
<svg
   xmlns:dc="http://purl.org/dc/elements/1.1/"
   xmlns:cc="http://creativecommons.org/ns#"
   xmlns:rdf="http://www.w3.org/1999/02/22-rdf-syntax-ns#"
   xmlns:svg="http://www.w3.org/2000/svg"
   xmlns="http://www.w3.org/2000/svg"
   id="svg2"
   viewBox="0 0 24 24"
   version="1.1"
   width="24px"
   height="24px">
<g>
    <path
       d="m 8.9576519,10.157783 q 0.7435988,0 1.2657001,0.268961 0.537922,0.25314 0.870169,0.680314 0.348067,0.427174 0.50628,0.980918 0.158212,0.553743 0.158212,1.13913 l 0,4.746374 -1.8985499,0 0,-4.17681 q 0,-0.332246 -0.047464,-0.680313 Q 9.7645356,12.752468 9.6063232,12.467686 9.4639319,12.167082 9.1791494,11.977227 8.9101882,11.787372 8.451372,11.787372 q -0.4588162,0 -0.7910625,0.174034 -0.3322462,0.174033 -0.5537437,0.474637 -0.2214975,0.284783 -0.3322462,0.648671 -0.1107488,0.363889 -0.1107488,0.743599 l 0,4.145167 -1.8985498,0 0,-11.960864 1.8985498,0 0,5.426688 0.031643,0 q 0.1107488,-0.237318 0.316425,-0.458816 0.2214975,-0.237319 0.50628,-0.411352 0.2847825,-0.189855 0.6486712,-0.300604 0.3638887,-0.110749 0.7910624,-0.110749 z" />
    <path
       d="m 18.339405,15.647757 -5.173548,0 0,-1.677053 4.762195,-7.1986681 2.27826,0 0,7.2461321 1.566304,0 0,1.629589 -1.566304,0 0,2.325723 -1.866907,0 0,-2.325723 z m 0,-6.644925 -0.03164,0 -3.180071,5.015336 3.211714,0 0,-5.015336 z" />
  </g>
</svg>
