<?xml version="1.0" encoding="UTF-8" standalone="no"?>
<svg
   xmlns:dc="http://purl.org/dc/elements/1.1/"
   xmlns:cc="http://creativecommons.org/ns#"
   xmlns:rdf="http://www.w3.org/1999/02/22-rdf-syntax-ns#"
   xmlns:svg="http://www.w3.org/2000/svg"
   xmlns="http://www.w3.org/2000/svg"
   id="svg2"
   viewBox="0 0 24 24"
   version="1.1"
   width="24px"
   height="24px">
  <g>
    <path
      d="m 8.9576519,10.157783 q 0.7435988,0 1.2657001,0.268961 0.537922,0.25314 0.870169,0.680314 0.348067,0.427174 0.50628,0.980918 0.158212,0.553743 0.158212,1.13913 l 0,4.746374 -1.8985499,0 0,-4.17681 q 0,-0.332246 -0.047464,-0.680313 Q 9.7645356,12.752468 9.6063232,12.467686 9.4639319,12.167082 9.1791494,11.977227 8.9101882,11.787372 8.451372,11.787372 q -0.4588162,0 -0.7910625,0.174034 -0.3322462,0.174033 -0.5537437,0.474637 -0.2214975,0.284783 -0.3322462,0.648671 -0.1107488,0.363889 -0.1107488,0.743599 l 0,4.145167 -1.8985498,0 0,-11.960864 1.8985498,0 0,5.426688 0.031643,0 q 0.1107488,-0.237318 0.316425,-0.458816 0.2214975,-0.237319 0.50628,-0.411352 0.2847825,-0.189855 0.6486712,-0.300604 0.3638887,-0.110749 0.7910624,-0.110749 z" />
    <path
      d="m 20.823341,8.4807308 -4.572341,0 -0.110749,2.4206512 q 0.268962,-0.07911 0.63285,-0.110749 0.37971,-0.03164 0.680314,-0.03164 0.822705,0 1.51884,0.237318 0.711956,0.237319 1.234057,0.696135 0.522102,0.442995 0.806884,1.107488 0.300604,0.648671 0.300604,1.503018 0,0.933454 -0.332246,1.677053 -0.316425,0.727777 -0.870169,1.234057 -0.553744,0.50628 -1.297343,0.775241 -0.743598,0.268962 -1.582124,0.268962 -1.408092,0 -2.373188,-0.648672 -0.965096,-0.664492 -1.408091,-1.803622 l 1.724516,-0.63285 q 0.237319,0.664493 0.791063,1.075845 0.553743,0.395531 1.313163,0.395531 0.427174,0 0.806884,-0.142391 0.37971,-0.142391 0.664492,-0.411352 0.284783,-0.268962 0.442995,-0.664493 0.174034,-0.411352 0.174034,-0.917632 0,-0.648672 -0.221497,-1.075845 -0.221498,-0.427174 -0.585387,-0.680314 -0.348067,-0.268961 -0.791062,-0.363889 -0.442995,-0.110748 -0.901811,-0.110748 -0.316425,0 -0.680314,0.04746 -0.348067,0.04746 -0.696135,0.142392 -0.332246,0.07911 -0.664492,0.189855 -0.316425,0.110748 -0.569565,0.237318 l 0.189855,-6.1228231 6.375963,0 0,1.7086949 z" />
  </g>
</svg>
