<?xml version="1.0" encoding="UTF-8" standalone="no"?>
<svg
   xmlns:dc="http://purl.org/dc/elements/1.1/"
   xmlns:cc="http://creativecommons.org/ns#"
   xmlns:rdf="http://www.w3.org/1999/02/22-rdf-syntax-ns#"
   xmlns:svg="http://www.w3.org/2000/svg"
   xmlns="http://www.w3.org/2000/svg"
   id="svg2"
   viewBox="0 0 24 24"
   version="1.1"
   width="24px"
   height="24px">
  <g>
    <path
       d="m 8.9576519,10.157783 q 0.7435988,0 1.2657001,0.268961 0.537922,0.25314 0.870169,0.680314 0.348067,0.427174 0.50628,0.980918 0.158212,0.553743 0.158212,1.13913 l 0,4.746374 -1.8985499,0 0,-4.17681 q 0,-0.332246 -0.047464,-0.680313 Q 9.7645356,12.752468 9.6063232,12.467686 9.4639319,12.167082 9.1791494,11.977227 8.9101882,11.787372 8.451372,11.787372 q -0.4588162,0 -0.7910625,0.174034 -0.3322462,0.174033 -0.5537437,0.474637 -0.2214975,0.284783 -0.3322462,0.648671 -0.1107488,0.363889 -0.1107488,0.743599 l 0,4.145167 -1.8985498,0 0,-11.960864 1.8985498,0 0,5.426688 0.031643,0 q 0.1107488,-0.237318 0.316425,-0.458816 0.2214975,-0.237319 0.50628,-0.411352 0.2847825,-0.189855 0.6486712,-0.300604 0.3638887,-0.110749 0.7910624,-0.110749 z" />
    <path
       d="m 19.810781,6.7720359 -2.863646,4.1451671 0.01582,0.01582 q 0.221498,-0.09493 0.553744,-0.142391 0.348067,-0.04746 0.63285,-0.04746 0.743599,0 1.39227,0.284783 0.648671,0.268961 1.13913,0.75942 0.490459,0.474637 0.75942,1.13913 0.284782,0.648671 0.284782,1.408091 0,0.88599 -0.316425,1.613767 -0.316425,0.727778 -0.870168,1.249879 -0.537923,0.50628 -1.297343,0.775241 -0.743599,0.284783 -1.597946,0.284783 -0.88599,0 -1.629589,-0.284783 -0.743598,-0.300604 -1.297342,-0.822705 -0.553744,-0.522101 -0.870169,-1.218236 -0.300603,-0.711956 -0.300603,-1.51884 0,-0.474637 0.07911,-0.88599 0.07911,-0.427173 0.221497,-0.806883 0.158213,-0.395532 0.363889,-0.791063 0.221497,-0.395531 0.490459,-0.822705 l 2.800361,-4.3350221 2.309902,0 z m -4.335022,7.6891271 q 0,0.442995 0.142391,0.838526 0.158213,0.395531 0.442995,0.696135 0.284783,0.300604 0.680314,0.474638 0.395531,0.174033 0.88599,0.174033 0.965096,0 1.550482,-0.601207 0.601208,-0.617029 0.601208,-1.613768 0,-0.474637 -0.158213,-0.870168 -0.142391,-0.411353 -0.427174,-0.696135 -0.284782,-0.284783 -0.680313,-0.442995 -0.37971,-0.174034 -0.854348,-0.174034 -0.474637,0 -0.88599,0.158213 -0.395531,0.158212 -0.696135,0.458816 -0.284782,0.284782 -0.442995,0.696135 -0.158212,0.411352 -0.158212,0.901811 z" />
  </g>
</svg>
